<svg xmlns="http://www.w3.org/2000/svg" viewBox="0 0 400 200" role="img" aria-label="Autocatalytic cycle drives exponential amplification">
  <defs>
    <linearGradient id="bg2" x1="0" y1="0" x2="1" y2="1"><stop offset="0" stop-color="#0e1c33"/><stop offset="1" stop-color="#173350"/></linearGradient>
    <marker id="ah2" markerWidth="9" markerHeight="9" refX="6" refY="3" orient="auto"><path d="M0,0 L6,3 L0,6 Z" fill="#14b8a1"/></marker>
  </defs>
  <rect width="400" height="200" fill="url(#bg2)"/>
  <text x="200" y="24" text-anchor="middle" fill="#eaf1fb" font-family="Georgia, serif" font-size="14">A species catalyses its own formation</text>
  <line x1="200" y1="38" x2="200" y2="185" stroke="#2c5580" stroke-width="1" stroke-dasharray="3 4"/>

  <!-- LEFT: autocatalytic cycle -->
  <g fill="none" stroke="#14b8a1" stroke-width="3" marker-end="url(#ah2)">
    <path d="M110 60 A48 48 0 0 1 150 145"/>
    <path d="M135 150 A48 48 0 0 1 55 132"/>
    <path d="M48 120 A48 48 0 0 1 95 58"/>
  </g>
  <text x="102" y="112" text-anchor="middle" fill="#c9a24a" font-family="Georgia, serif" font-style="italic" font-size="19">A &#8594; 2A</text>
  <g fill="#7dd3fc"><circle cx="110" cy="60" r="6"/><circle cx="150" cy="145" r="6"/><circle cx="48" cy="120" r="6"/></g>

  <!-- RIGHT: exponential growth -->
  <g stroke="#3a5a86" stroke-width="1.5"><line x1="232" y1="55" x2="232" y2="172"/><line x1="232" y1="172" x2="378" y2="172"/></g>
  <path d="M234 168 C300 166 330 150 350 110 C362 86 368 70 374 58" fill="none" stroke="#c9a24a" stroke-width="3"/>
  <text x="305" y="190" text-anchor="middle" fill="#9fb6d6" font-family="sans-serif" font-size="11">time</text>
  <text x="224" y="115" fill="#9fb6d6" font-family="sans-serif" font-size="11" transform="rotate(-90 224 115)" text-anchor="middle">amount N(t)</text>
  <text x="300" y="78" fill="#eaf1fb" font-family="Georgia, serif" font-style="italic" font-size="13">&#955; &gt; 1</text>
</svg>
