<svg xmlns="http://www.w3.org/2000/svg" viewBox="0 0 400 200" role="img" aria-label="ODE trajectories converging to a steady state">
  <defs>
    <linearGradient id="bg3" x1="0" y1="0" x2="1" y2="1"><stop offset="0" stop-color="#0e1c33"/><stop offset="1" stop-color="#1b3a63"/></linearGradient>
    <marker id="ah3" markerWidth="8" markerHeight="8" refX="5" refY="3" orient="auto"><path d="M0,0 L5,3 L0,6 Z" fill="#7dd3fc"/></marker>
  </defs>
  <rect width="400" height="200" fill="url(#bg3)"/>
  <text x="200" y="24" text-anchor="middle" fill="#eaf1fb" font-family="Georgia, serif" font-style="italic" font-size="15">dx/dt = f(x)&#160;&#160;&#8212;&#160;&#160;kinetics as ODEs</text>
  <g stroke="#3a5a86" stroke-width="1.5"><line x1="55" y1="45" x2="55" y2="172"/><line x1="55" y1="172" x2="380" y2="172"/></g>
  <line x1="55" y1="95" x2="380" y2="95" stroke="#c9a24a" stroke-width="2" stroke-dasharray="7 5"/>
  <text x="330" y="88" fill="#c9a24a" font-family="sans-serif" font-size="11">steady state</text>
  <path d="M55 160 C130 158 150 100 230 97 C300 95 330 96 378 95" fill="none" stroke="#14b8a1" stroke-width="3" marker-end="url(#ah3)"/>
  <path d="M55 55 C130 58 150 92 230 94 C300 96 330 95 378 95" fill="none" stroke="#7dd3fc" stroke-width="3" marker-end="url(#ah3)"/>
  <text x="215" y="190" text-anchor="middle" fill="#9fb6d6" font-family="sans-serif" font-size="11">time</text>
  <text x="44" y="112" fill="#9fb6d6" font-family="sans-serif" font-size="11" transform="rotate(-90 44 112)" text-anchor="middle">concentration</text>
</svg>
