<svg xmlns="http://www.w3.org/2000/svg" viewBox="0 0 400 200" role="img" aria-label="Nyquist impedance plot with equivalent circuit">
  <defs>
    <linearGradient id="bg4" x1="0" y1="0" x2="1" y2="1"><stop offset="0" stop-color="#0e1c33"/><stop offset="1" stop-color="#173350"/></linearGradient>
    <marker id="ah4" markerWidth="8" markerHeight="8" refX="5" refY="3" orient="auto"><path d="M0,0 L5,3 L0,6 Z" fill="#c9a24a"/></marker>
  </defs>
  <rect width="400" height="200" fill="url(#bg4)"/>
  <text x="200" y="24" text-anchor="middle" fill="#eaf1fb" font-family="Georgia, serif" font-size="14">Impedance in the complex plane</text>
  <!-- axes -->
  <g stroke="#3a5a86" stroke-width="1.5"><line x1="45" y1="45" x2="45" y2="172"/><line x1="45" y1="172" x2="330" y2="172"/></g>
  <!-- semicircle -->
  <path d="M70 172 A78 78 0 0 1 226 172" fill="none" stroke="#14b8a1" stroke-width="3"/>
  <g fill="#7dd3fc">
    <circle cx="86" cy="150" r="3.5"/><circle cx="104" cy="128" r="3.5"/><circle cx="128" cy="110" r="3.5"/>
    <circle cx="148" cy="103" r="3.5"/><circle cx="176" cy="105" r="3.5"/><circle cx="200" cy="123" r="3.5"/><circle cx="216" cy="148" r="3.5"/>
  </g>
  <path d="M120 92 A70 70 0 0 1 180 92" fill="none" stroke="#c9a24a" stroke-width="1.5" marker-end="url(#ah4)"/>
  <text x="150" y="82" text-anchor="middle" fill="#c9a24a" font-family="Georgia, serif" font-style="italic" font-size="12">&#969; &#8593;</text>
  <text x="300" y="188" fill="#9fb6d6" font-family="Georgia, serif" font-size="12">Z&#8242;</text>
  <text x="30" y="42" fill="#9fb6d6" font-family="Georgia, serif" font-size="12">&#8722;Z&#8243;</text>
  <text x="60" y="188" fill="#9fb6d6" font-family="sans-serif" font-size="10">R&#8347;</text>
  <text x="212" y="188" fill="#9fb6d6" font-family="sans-serif" font-size="10">R&#8347;+R&#8348;&#8348;</text>
  <!-- equivalent circuit -->
  <g stroke="#8aa2c4" stroke-width="1.6" fill="none">
    <line x1="345" y1="95" x2="358" y2="95"/>
    <rect x="358" y="88" width="20" height="14"/>
    <line x1="378" y1="95" x2="390" y2="95"/>
    <line x1="352" y1="120" x2="352" y2="150"/>
    <line x1="345" y1="150" x2="390" y2="150"/><line x1="352" y1="150" x2="352" y2="150"/>
  </g>
  <text x="368" y="82" text-anchor="middle" fill="#8aa2c4" font-family="sans-serif" font-size="9">R&#8348;&#8348;</text>
</svg>
